Strikeforce.Rockhold.vs.Kennedy[60FPS][MP4][720P][Secludedly]


Middleweight Championship:  Luke Rockhold vs. Tim Kennedy
Welterweight Championship:  Nate Marquardt vs. Tyron Woodley
Middleweight:  Keith Jardine vs. Roger Gracie
Middleweight:  Robbie Lawler vs. Lorenz Larkin


File size                                : 6.58 GiB
Duration                                 : 2h 29mn
Overall bit rate mode                    : Variable
Overall bit rate                         : 6 299 Kbps
Maximum Overall bit rate                 : 18.0 Mbps

Video
ID                                       : 4113 (0x1011)
Menu ID                                  : 1 (0x1)
Format                                   : AVC
Format/Info                              : Advanced Video Codec
Format profile                           : Main@L4.0
Format settings, CABAC                   : Yes
Format settings, ReFrames                : 4 frames
Format settings, GOP                     : M=4, N=32
Codec ID                                 : 27
Duration                                 : 2h 29mn
Bit rate mode                            : Variable
Bit rate                                 : 5 600 Kbps
Maximum bit rate                         : 20.0 Mbps
Width                                    : 1 280 pixels
Height                                   : 720 pixels
Display aspect ratio                     : 16:9
Frame rate                               : 59.940 fps
Color space                              : YUV
Chroma subsampling                       : 4:2:0
Bit depth                                : 8 bits
Scan type                                : Progressive
Bits/(Pixel*Frame)                       : 0.101
Stream size                              : 5.85 GiB (89%)
Color primaries                          : BT.709-5, BT.1361, IEC 61966-2-4, SMPTE RP177
Transfer characteristics                 : BT.709-5, BT.1361
Matrix coefficients                      : BT.709-5, BT.1361, IEC 61966-2-4 709, SMPTE RP177

Audio
ID                                       : 4352 (0x1100)
Menu ID                                  : 1 (0x1)
Format                                   : AC-3
Format/Info                              : Audio Coding 3
Mode extension                           : CM (complete main)
Format settings, Endianness              : Big
Codec ID                                 : 129
Duration                                 : 2h 29mn
Bit rate mode                            : Constant
Bit rate                                 : 384 Kbps
Channel(s)                               : 6 channels
Channel positions                        : Front: L C R, Side: L R, LFE
Sampling rate                            : 48.0 KHz
Bit depth                                : 16 bits
Compression mode                         : Lossy
Delay relative to video                  : 20ms
Stream size                              : 411 MiB (6%)
